%TF.GenerationSoftware,Altium Limited,Altium Designer,19.1.8 (144)*%
G04 Layer_Color=255*
%FSLAX25Y25*%
%MOIN*%
%TF.FileFunction,Pads,Top*%
%TF.Part,Single*%
G01*
G75*
%TA.AperFunction,SMDPad,CuDef*%
G04:AMPARAMS|DCode=11|XSize=21.65mil|YSize=31.5mil|CornerRadius=1.95mil|HoleSize=0mil|Usage=FLASHONLY|Rotation=90.000|XOffset=0mil|YOffset=0mil|HoleType=Round|Shape=RoundedRectangle|*
%AMROUNDEDRECTD11*
21,1,0.02165,0.02760,0,0,90.0*
21,1,0.01776,0.03150,0,0,90.0*
1,1,0.00390,0.01380,0.00888*
1,1,0.00390,0.01380,-0.00888*
1,1,0.00390,-0.01380,-0.00888*
1,1,0.00390,-0.01380,0.00888*
%
%ADD11ROUNDEDRECTD11*%
%ADD12R,0.06299X0.03543*%
%ADD13R,0.03543X0.06299*%
%ADD14R,0.04724X0.04724*%
%ADD15R,0.03150X0.03150*%
%ADD16R,0.05315X0.07284*%
%ADD17R,0.07284X0.05315*%
%ADD18R,0.01968X0.01102*%
%ADD19R,0.03543X0.06299*%
%ADD20R,0.03740X0.10236*%
%ADD21R,0.04166X0.04749*%
%ADD22R,0.05924X0.06127*%
%ADD23R,0.04749X0.04166*%
%ADD24O,0.08268X0.01181*%
%ADD25O,0.01181X0.08268*%
%TA.AperFunction,ConnectorPad*%
%ADD26R,0.03150X0.06693*%
%ADD27R,0.09500X0.13000*%
%TA.AperFunction,SMDPad,CuDef*%
%ADD28R,0.06127X0.05924*%
%ADD29R,0.06693X0.09843*%
%ADD30R,0.08268X0.05512*%
%ADD31R,0.10630X0.03937*%
%ADD32R,0.05906X0.07480*%
%ADD33R,0.06693X0.04331*%
%ADD34R,0.11024X0.05709*%
G04:AMPARAMS|DCode=35|XSize=25.59mil|YSize=64.96mil|CornerRadius=1.92mil|HoleSize=0mil|Usage=FLASHONLY|Rotation=90.000|XOffset=0mil|YOffset=0mil|HoleType=Round|Shape=RoundedRectangle|*
%AMROUNDEDRECTD35*
21,1,0.02559,0.06112,0,0,90.0*
21,1,0.02175,0.06496,0,0,90.0*
1,1,0.00384,0.03056,0.01088*
1,1,0.00384,0.03056,-0.01088*
1,1,0.00384,-0.03056,-0.01088*
1,1,0.00384,-0.03056,0.01088*
%
%ADD35ROUNDEDRECTD35*%
%ADD36R,0.06496X0.04331*%
%TA.AperFunction,ComponentPad*%
%ADD39C,0.09646*%
%ADD40R,0.09646X0.09646*%
%ADD41C,0.06102*%
%ADD42R,0.06102X0.06102*%
%ADD43C,0.05906*%
%ADD44R,0.05906X0.05906*%
%TA.AperFunction,ViaPad*%
%ADD45C,0.06000*%
%TA.AperFunction,ComponentPad*%
%ADD46C,0.07087*%
D11*
X40252Y100465D02*
D03*
Y96724D02*
D03*
Y92984D02*
D03*
X50291D02*
D03*
Y100465D02*
D03*
D12*
X336772Y155224D02*
D03*
Y144595D02*
D03*
X324272Y155039D02*
D03*
Y144409D02*
D03*
D13*
X301457Y143724D02*
D03*
X312087D02*
D03*
D14*
X336272Y123591D02*
D03*
Y131858D02*
D03*
X324772Y123591D02*
D03*
Y131858D02*
D03*
D15*
X314772Y126771D02*
D03*
Y132677D02*
D03*
D16*
X33768Y79224D02*
D03*
X45776D02*
D03*
D17*
X100772Y64228D02*
D03*
Y52220D02*
D03*
D18*
X281291Y245724D02*
D03*
Y243756D02*
D03*
Y241787D02*
D03*
Y239819D02*
D03*
X288772D02*
D03*
Y241787D02*
D03*
Y243756D02*
D03*
Y245724D02*
D03*
D19*
X285032Y242772D02*
D03*
D20*
X271760Y228224D02*
D03*
X282784D02*
D03*
X292284Y258224D02*
D03*
X281260D02*
D03*
D21*
X131272Y301973D02*
D03*
Y308476D02*
D03*
X165772Y178976D02*
D03*
Y172473D02*
D03*
X252272Y196976D02*
D03*
Y190472D02*
D03*
X178772Y200472D02*
D03*
Y206976D02*
D03*
X164772Y140976D02*
D03*
Y134473D02*
D03*
X139272Y169976D02*
D03*
Y163472D02*
D03*
D22*
X254725Y177724D02*
D03*
X261818D02*
D03*
D23*
X187520Y119224D02*
D03*
X194024D02*
D03*
X157020Y151724D02*
D03*
X163523D02*
D03*
X245020Y126724D02*
D03*
X251523D02*
D03*
X39024Y123224D02*
D03*
X32520D02*
D03*
X167524Y189724D02*
D03*
X161020D02*
D03*
D24*
X180134Y186768D02*
D03*
Y184799D02*
D03*
Y182831D02*
D03*
Y180862D02*
D03*
Y178894D02*
D03*
Y176925D02*
D03*
Y174957D02*
D03*
Y172988D02*
D03*
Y171020D02*
D03*
Y169051D02*
D03*
Y167083D02*
D03*
Y165114D02*
D03*
Y163146D02*
D03*
Y161177D02*
D03*
Y159209D02*
D03*
Y157240D02*
D03*
Y155272D02*
D03*
Y153303D02*
D03*
Y151335D02*
D03*
Y149366D02*
D03*
Y147398D02*
D03*
Y145429D02*
D03*
Y143461D02*
D03*
Y141492D02*
D03*
Y139524D02*
D03*
X239976D02*
D03*
Y141492D02*
D03*
Y143461D02*
D03*
Y145429D02*
D03*
Y147398D02*
D03*
Y149366D02*
D03*
Y151335D02*
D03*
Y153303D02*
D03*
Y155272D02*
D03*
Y157240D02*
D03*
Y159209D02*
D03*
Y161177D02*
D03*
Y163146D02*
D03*
Y165114D02*
D03*
Y167083D02*
D03*
Y169051D02*
D03*
Y171020D02*
D03*
Y172988D02*
D03*
Y174957D02*
D03*
Y176925D02*
D03*
Y178894D02*
D03*
Y180862D02*
D03*
Y182831D02*
D03*
Y184799D02*
D03*
Y186768D02*
D03*
D25*
X186433Y133224D02*
D03*
X188402D02*
D03*
X190370D02*
D03*
X192339D02*
D03*
X194307D02*
D03*
X196276D02*
D03*
X198244D02*
D03*
X200213D02*
D03*
X202181D02*
D03*
X204150D02*
D03*
X206118D02*
D03*
X208087D02*
D03*
X210055D02*
D03*
X212024D02*
D03*
X213992D02*
D03*
X215961D02*
D03*
X217929D02*
D03*
X219898D02*
D03*
X221866D02*
D03*
X223835D02*
D03*
X225803D02*
D03*
X227772D02*
D03*
X229740D02*
D03*
X231709D02*
D03*
X233677D02*
D03*
Y193067D02*
D03*
X231709D02*
D03*
X229740D02*
D03*
X227772D02*
D03*
X225803D02*
D03*
X223835D02*
D03*
X221866D02*
D03*
X219898D02*
D03*
X217929D02*
D03*
X215961D02*
D03*
X213992D02*
D03*
X212024D02*
D03*
X210055D02*
D03*
X208087D02*
D03*
X206118D02*
D03*
X204150D02*
D03*
X202181D02*
D03*
X200213D02*
D03*
X198244D02*
D03*
X196276D02*
D03*
X194307D02*
D03*
X192339D02*
D03*
X190370D02*
D03*
X188402D02*
D03*
X186433D02*
D03*
D26*
X230394Y35724D02*
D03*
X224488D02*
D03*
X218583D02*
D03*
X212677D02*
D03*
X206772D02*
D03*
X200866D02*
D03*
X194960D02*
D03*
X189055D02*
D03*
X183150D02*
D03*
X177244D02*
D03*
X99689Y35531D02*
D03*
X93783D02*
D03*
X87878D02*
D03*
X81972D02*
D03*
X76067D02*
D03*
X70161D02*
D03*
X64256D02*
D03*
X58350D02*
D03*
X52445D02*
D03*
X46539D02*
D03*
D27*
X244169Y16124D02*
D03*
X163469D02*
D03*
X113464Y15931D02*
D03*
X32764D02*
D03*
D28*
X231272Y120271D02*
D03*
Y113178D02*
D03*
D29*
X328839Y236909D02*
D03*
Y252658D02*
D03*
D30*
X66358Y184583D02*
D03*
Y166866D02*
D03*
X102185D02*
D03*
Y184583D02*
D03*
D31*
X302772Y238394D02*
D03*
Y247055D02*
D03*
D32*
X112177Y79224D02*
D03*
X100366D02*
D03*
D33*
X64772Y108433D02*
D03*
Y97016D02*
D03*
D34*
X222772Y307720D02*
D03*
Y319728D02*
D03*
D35*
X173394Y296724D02*
D03*
Y301724D02*
D03*
Y306724D02*
D03*
Y311724D02*
D03*
X151150Y296724D02*
D03*
Y301724D02*
D03*
Y306724D02*
D03*
Y311724D02*
D03*
D36*
X171772Y324114D02*
D03*
Y335335D02*
D03*
D39*
X350886Y236575D02*
D03*
Y289606D02*
D03*
X364272Y236575D02*
D03*
D40*
Y289606D02*
D03*
D41*
X233268Y254724D02*
D03*
X223268D02*
D03*
X213268D02*
D03*
X203268D02*
D03*
X233268Y264724D02*
D03*
X223268D02*
D03*
X213268D02*
D03*
D42*
X203268D02*
D03*
D43*
X137272Y119724D02*
D03*
X127272Y106724D02*
D03*
X195772Y332724D02*
D03*
D44*
X127272Y119724D02*
D03*
X137272Y106724D02*
D03*
X205772Y332724D02*
D03*
D45*
X63272Y186224D02*
D03*
D46*
X297731Y313184D02*
D03*
X290772Y306224D02*
D03*
Y320144D02*
D03*
X304691Y306224D02*
D03*
Y320144D02*
D03*
%TF.MD5,c19e9a689001fdcb2dd74c6bb9a723df*%
M02*
