%TF.GenerationSoftware,Altium Limited,Altium Designer,19.1.8 (144)*%
G04 Layer_Physical_Order=1*
G04 Layer_Color=255*
%FSLAX25Y25*%
%MOIN*%
%TF.FileFunction,Copper,L1,Top,Signal*%
%TF.Part,Single*%
G01*
G75*
%TA.AperFunction,Conductor*%
%ADD10C,0.01000*%
%TA.AperFunction,SMDPad,CuDef*%
G04:AMPARAMS|DCode=11|XSize=21.65mil|YSize=31.5mil|CornerRadius=1.95mil|HoleSize=0mil|Usage=FLASHONLY|Rotation=90.000|XOffset=0mil|YOffset=0mil|HoleType=Round|Shape=RoundedRectangle|*
%AMROUNDEDRECTD11*
21,1,0.02165,0.02760,0,0,90.0*
21,1,0.01776,0.03150,0,0,90.0*
1,1,0.00390,0.01380,0.00888*
1,1,0.00390,0.01380,-0.00888*
1,1,0.00390,-0.01380,-0.00888*
1,1,0.00390,-0.01380,0.00888*
%
%ADD11ROUNDEDRECTD11*%
%ADD12R,0.06299X0.03543*%
%ADD13R,0.03543X0.06299*%
%ADD14R,0.04724X0.04724*%
%ADD15R,0.03150X0.03150*%
%ADD16R,0.05315X0.07284*%
%ADD17R,0.07284X0.05315*%
%ADD18R,0.01968X0.01102*%
%ADD19R,0.03543X0.06299*%
%ADD20R,0.03740X0.10236*%
%ADD21R,0.04166X0.04749*%
%ADD22R,0.05924X0.06127*%
%ADD23R,0.04749X0.04166*%
%ADD24O,0.08268X0.01181*%
%ADD25O,0.01181X0.08268*%
%TA.AperFunction,ConnectorPad*%
%ADD26R,0.03150X0.06693*%
%ADD27R,0.09500X0.13000*%
%TA.AperFunction,SMDPad,CuDef*%
%ADD28R,0.06127X0.05924*%
%ADD29R,0.06693X0.09843*%
%ADD30R,0.08268X0.05512*%
%ADD31R,0.10630X0.03937*%
%ADD32R,0.05906X0.07480*%
%ADD33R,0.06693X0.04331*%
%ADD34R,0.11024X0.05709*%
G04:AMPARAMS|DCode=35|XSize=25.59mil|YSize=64.96mil|CornerRadius=1.92mil|HoleSize=0mil|Usage=FLASHONLY|Rotation=90.000|XOffset=0mil|YOffset=0mil|HoleType=Round|Shape=RoundedRectangle|*
%AMROUNDEDRECTD35*
21,1,0.02559,0.06112,0,0,90.0*
21,1,0.02175,0.06496,0,0,90.0*
1,1,0.00384,0.03056,0.01088*
1,1,0.00384,0.03056,-0.01088*
1,1,0.00384,-0.03056,-0.01088*
1,1,0.00384,-0.03056,0.01088*
%
%ADD35ROUNDEDRECTD35*%
%ADD36R,0.06496X0.04331*%
%TA.AperFunction,Conductor*%
%ADD37C,0.01968*%
%ADD38C,0.03937*%
%TA.AperFunction,ComponentPad*%
%ADD39C,0.09646*%
%ADD40R,0.09646X0.09646*%
%ADD41C,0.06102*%
%ADD42R,0.06102X0.06102*%
%ADD43C,0.05906*%
%ADD44R,0.05906X0.05906*%
%TA.AperFunction,ViaPad*%
%ADD45C,0.06000*%
%TA.AperFunction,ComponentPad*%
%ADD46C,0.07087*%
%TA.AperFunction,ViaPad*%
%ADD47C,0.05000*%
%ADD48C,0.01968*%
%ADD49C,0.07087*%
D10*
X173394Y322492D02*
G03*
X171772Y324114I-1622J0D01*
G01*
X62272Y104472D02*
Y108433D01*
X50783Y92984D02*
X62272Y104472D01*
X46161Y87894D02*
Y96752D01*
X46260Y96850D01*
X43012Y100098D02*
X46260Y96850D01*
X93783Y37189D02*
X94095Y37500D01*
X93783Y35531D02*
Y37189D01*
X94095Y37500D02*
Y103740D01*
X52445Y35531D02*
Y41059D01*
X49409Y44094D02*
X52445Y41059D01*
X46539Y44094D02*
X49409D01*
X223835Y82661D02*
X230394Y76102D01*
Y35724D02*
Y76102D01*
X163913Y151335D02*
X180134D01*
X218307Y221752D02*
Y259764D01*
X208087Y211531D02*
X218307Y221752D01*
X208087Y193067D02*
Y211531D01*
X178740Y235433D02*
X179429D01*
X143701Y270472D02*
X178740Y235433D01*
X50783Y100465D02*
Y111520D01*
X39173Y123130D02*
X50783Y111520D01*
X283776Y241516D02*
X285032Y242772D01*
X281291Y245724D02*
Y258193D01*
X283776Y239819D02*
Y241516D01*
X298904Y128224D02*
X300357Y126771D01*
X32520Y101732D02*
Y123224D01*
X37528Y96724D02*
X39760D01*
X32520Y101732D02*
X37528Y96724D01*
X65780Y108433D02*
X70374Y103839D01*
Y92327D02*
Y103839D01*
X46539Y68492D02*
X70374Y92327D01*
X64772Y108433D02*
X65780D01*
X40252Y84748D02*
X42634Y82366D01*
X43618D01*
X45776Y80209D01*
Y79224D02*
Y80209D01*
X40252Y84748D02*
Y92984D01*
X40618Y100098D02*
X43012D01*
X40252Y100465D02*
X40618Y100098D01*
X62272Y108433D02*
X64772D01*
X50291Y92984D02*
X50783D01*
X50122Y82366D02*
X61955Y94199D01*
X47933Y82366D02*
X50122D01*
X329085Y236663D02*
X329173Y236575D01*
X328839Y236909D02*
X329085Y236663D01*
X328985Y236564D02*
X331685Y233864D01*
X328839Y236711D02*
X328985Y236564D01*
X173394Y306724D02*
X221776D01*
X222772Y307720D01*
X233815Y180862D02*
X239976D01*
X228346Y175394D02*
X233815Y180862D01*
X228346Y169882D02*
Y175394D01*
X139272Y169808D02*
X150689D01*
X233268Y264724D02*
X235079D01*
X246063Y253740D01*
X218307Y259764D02*
X223268Y264724D01*
X213268D02*
Y279720D01*
X159449Y182874D02*
Y188154D01*
Y182874D02*
X159905D01*
X160890Y183858D01*
X163897Y180851D01*
X159449Y188154D02*
X161020Y189724D01*
X46539Y44094D02*
Y68492D01*
Y35531D02*
Y44094D01*
X217321Y214274D02*
X222390Y219342D01*
X222441Y219291D01*
Y236024D01*
X285839Y248224D02*
X288339Y245724D01*
X283791Y248224D02*
X285839D01*
X246063Y231516D02*
Y253740D01*
X234272Y219724D02*
X246063Y231516D01*
X237772Y283724D02*
X250984Y270512D01*
Y210374D02*
Y270512D01*
X233677Y193067D02*
X250984Y210374D01*
X191929Y142929D02*
Y143504D01*
X191724Y142724D02*
X191929Y142929D01*
X190945Y149409D02*
X197835D01*
X187051Y153303D02*
X190945Y149409D01*
X180134Y153303D02*
X187051D01*
X191929Y156299D02*
Y158268D01*
X190988Y159209D02*
X191929Y158268D01*
X189055Y35724D02*
Y50906D01*
X151575Y88386D02*
X189055Y50906D01*
X151575Y88386D02*
Y112008D01*
X161417Y86417D02*
X194960Y52874D01*
Y35724D02*
Y52874D01*
X161417Y86417D02*
Y112008D01*
X200866Y35724D02*
Y53858D01*
X167323Y87402D02*
X200866Y53858D01*
X167323Y87402D02*
Y108071D01*
X172244Y112992D01*
X189961Y171063D02*
Y174016D01*
X185083Y178894D02*
X189961Y174016D01*
X180134Y178894D02*
X185083D01*
X186067Y182831D02*
X198819Y170079D01*
Y169095D02*
Y170079D01*
X180134Y182831D02*
X186067D01*
X202756Y172047D02*
X207677D01*
X188035Y186768D02*
X202756Y172047D01*
X180134Y186768D02*
X188035D01*
X205272Y112724D02*
Y117224D01*
X199984Y180724D02*
X201272D01*
X192272Y188437D02*
X199984Y180724D01*
X192272Y188437D02*
Y189329D01*
X100366Y79224D02*
X100772Y78819D01*
X99410Y80181D02*
X100366Y79224D01*
X99410Y80181D02*
Y123819D01*
X186772Y142724D02*
X191724D01*
X180134Y159209D02*
X190988D01*
X173357Y145429D02*
X175326Y147398D01*
X180134D01*
X143701Y289173D02*
X151575Y297047D01*
X143701Y270472D02*
Y289173D01*
X151150Y311724D02*
Y315189D01*
X146653Y319685D02*
X151150Y315189D01*
X125000Y319685D02*
X146653D01*
X121063Y315748D02*
X125000Y319685D01*
X121063Y278346D02*
Y315748D01*
Y278346D02*
X167323Y232087D01*
X194882Y201575D02*
Y212402D01*
Y201575D02*
X196276Y200181D01*
Y193067D02*
Y200181D01*
X186024Y207480D02*
Y212402D01*
Y207480D02*
X194307Y199197D01*
Y193067D02*
Y199197D01*
X198244Y204937D02*
X203740Y210433D01*
X198244Y193067D02*
Y204937D01*
X172772Y220224D02*
X173272Y219724D01*
X192272Y189329D02*
X192304Y189361D01*
Y193032D01*
X192339Y193067D01*
X205272Y112724D02*
X206772Y111224D01*
Y35724D02*
Y111224D01*
X213272Y36319D02*
Y56724D01*
X212677Y35724D02*
X213272Y36319D01*
X212024Y57973D02*
X213272Y56724D01*
X212024Y57973D02*
Y133224D01*
X218772Y35913D02*
Y64724D01*
X218583Y35724D02*
X218772Y35913D01*
X215961Y67535D02*
X218772Y64724D01*
X215961Y67535D02*
Y133224D01*
X219898Y76598D02*
Y133224D01*
Y76598D02*
X224488Y72008D01*
X223835Y82661D02*
Y133224D01*
X224488Y35724D02*
Y72008D01*
X194024Y119224D02*
Y123472D01*
X205224Y161177D02*
X226772Y182724D01*
X180134Y161177D02*
X205224D01*
X217272Y283724D02*
X237772D01*
X213268Y279720D02*
X217272Y283724D01*
X187811Y119224D02*
X189394Y117641D01*
X187520Y119224D02*
X187811D01*
X292284Y258224D02*
Y259354D01*
X293653Y260724D01*
X137272Y119724D02*
X166772D01*
X171772Y124724D02*
Y138224D01*
X166772Y119724D02*
X171772Y124724D01*
X100772Y64228D02*
Y78819D01*
X99689Y51138D02*
X100772Y52220D01*
X99689Y35531D02*
Y51138D01*
X336272Y131858D02*
X336772Y132358D01*
Y144595D01*
X324272Y132358D02*
X324772Y131858D01*
X324272Y132358D02*
Y144409D01*
X312087Y135362D02*
X314772Y132677D01*
X312087Y135362D02*
Y143724D01*
X297272Y159724D02*
X332272D01*
X334250Y157746D01*
Y156496D02*
Y157746D01*
Y156496D02*
X335522Y155224D01*
X336772D01*
X292819Y155272D02*
X297272Y159724D01*
X239976Y155272D02*
X292819D01*
X239976Y151335D02*
X297882D01*
X301587Y155039D01*
X324272D01*
X296272Y143724D02*
X301457D01*
X292598Y147398D02*
X296272Y143724D01*
X239976Y147398D02*
X292598D01*
X298904Y128224D02*
X300772D01*
X186126Y143370D02*
X186772Y142724D01*
X180224Y143370D02*
X186126D01*
X180134Y143461D02*
X180224Y143370D01*
X171772Y138224D02*
X175039Y141492D01*
X180134D01*
X180272Y49224D02*
X183150Y46347D01*
Y35724D02*
Y46347D01*
X177244Y46197D02*
X180272Y49224D01*
X177244Y35724D02*
Y46197D01*
X158686Y205810D02*
Y206139D01*
X260751Y178792D02*
X261818Y177724D01*
X172772Y144843D02*
X173357Y145429D01*
X180134D01*
X172772Y142473D02*
Y144843D01*
X166646Y136347D02*
X172772Y142473D01*
X166355Y136347D02*
X166646D01*
X164772Y134764D02*
X166355Y136347D01*
X164772Y134473D02*
Y134764D01*
X166646Y142851D02*
X173161Y149366D01*
X166355Y142851D02*
X166646D01*
X164772Y141268D02*
X166355Y142851D01*
X173161Y149366D02*
X180134D01*
X163523Y151724D02*
X163913Y151335D01*
X157020Y151724D02*
X157021Y151723D01*
X162897Y142851D02*
X163189D01*
X164772Y140976D02*
Y141268D01*
X150272Y179224D02*
Y180224D01*
X163897Y180851D02*
X164189D01*
X165772Y179268D01*
Y178976D02*
Y179268D01*
X250397Y198851D02*
X250689D01*
X252272Y197268D01*
Y196976D02*
Y197268D01*
X251393Y196097D02*
X251832Y196537D01*
X81772Y46724D02*
X81972Y46524D01*
X63772Y46224D02*
X64256Y45740D01*
X45776Y80209D02*
X47933Y82366D01*
X61955Y94199D02*
Y95350D01*
X63620Y97016D01*
X64772D01*
X170772Y174183D02*
X175869Y169086D01*
X180099D01*
X180134Y169051D01*
X66358Y166866D02*
X102185D01*
X150689Y169808D02*
X159319Y161177D01*
X102185Y166866D02*
X103563D01*
X105819Y169122D01*
Y169390D01*
X106405Y169976D01*
X139272D01*
Y169808D02*
Y169976D01*
X159319Y161177D02*
X180134D01*
X170772Y174183D02*
Y176639D01*
X169686Y177724D02*
X170772Y176639D01*
X281724Y239819D02*
X283776D01*
X281776Y239335D02*
X282784Y238327D01*
X281776Y239335D02*
Y239768D01*
X281724Y239819D02*
X281776Y239768D01*
X281291Y239819D02*
X281724D01*
X282784Y229639D02*
Y238327D01*
X281260Y258224D02*
X281291Y258193D01*
X281776Y246209D02*
X283791Y248224D01*
X281776Y245776D02*
Y246209D01*
X281724Y245724D02*
X281776Y245776D01*
X281291Y245724D02*
X281724D01*
X288339D02*
X288772D01*
X302102Y237724D02*
X302772Y238394D01*
X294965Y237724D02*
X302102D01*
X290902Y241787D02*
X294965Y237724D01*
X288772Y241787D02*
X290902D01*
X291256Y243756D02*
X294555Y247055D01*
X302772D01*
X288772Y243756D02*
X291256D01*
X271760Y234740D02*
X278807Y241787D01*
X271760Y228224D02*
Y234740D01*
X278807Y241787D02*
X281291D01*
Y241870D02*
Y243756D01*
X282784Y229639D02*
X284154Y231009D01*
X285568D01*
X288772Y234213D01*
Y239819D01*
X328839Y236711D02*
Y236909D01*
X290772Y320144D02*
X292419D01*
X325992Y248463D02*
X328839Y251309D01*
Y252658D01*
X173394Y311724D02*
Y322492D01*
X190272Y301724D02*
X191272Y300724D01*
X173394Y301724D02*
X190272D01*
X205772Y332724D02*
X216526Y321970D01*
X220530D01*
X222772Y319728D01*
Y307720D02*
X224268Y306224D01*
X290772D01*
X131272Y301973D02*
X131520Y301724D01*
X151150D01*
X131272Y308308D02*
Y308476D01*
Y308308D02*
X132855Y306724D01*
X151150D01*
X246245Y182831D02*
X246276Y182799D01*
X249651D01*
X252162Y180288D01*
X252263D01*
X254725Y177826D01*
Y177724D02*
Y177826D01*
X239976Y182831D02*
X246245D01*
X249274Y196097D02*
X251393D01*
X239976Y186799D02*
X249274Y196097D01*
X239976Y186768D02*
Y186799D01*
Y184799D02*
X246598D01*
X250397Y188598D01*
X250689D01*
X252272Y190181D01*
X233799Y133102D02*
X240177Y126724D01*
X245020D01*
X231272Y120271D02*
X231709Y120708D01*
Y133224D01*
X187520Y119224D02*
Y125972D01*
X188402Y126854D01*
Y133224D01*
X190370Y127126D02*
X194024Y123472D01*
X190370Y127126D02*
Y133224D01*
X179524Y206224D02*
X182772D01*
X178772Y206976D02*
X179524Y206224D01*
X182772D02*
X188402Y200594D01*
Y193067D02*
Y200594D01*
X178772Y200181D02*
Y200472D01*
Y200181D02*
X180355Y198598D01*
X180646D01*
X186177Y193067D01*
X186433D01*
X175071Y176925D02*
X180134D01*
X167524Y184473D02*
X175071Y176925D01*
X167524Y184473D02*
Y189724D01*
X167024Y177724D02*
X169686D01*
X165772Y178976D02*
X167024Y177724D01*
X175887Y167083D02*
X175887Y167083D01*
X171161Y167083D02*
X175887D01*
X167646Y170598D02*
X171161Y167083D01*
X167355Y170598D02*
X167646D01*
X165772Y172181D02*
X167355Y170598D01*
X165772Y172181D02*
Y172473D01*
X175887Y167083D02*
X180134D01*
D11*
X40252Y100465D02*
D03*
Y96724D02*
D03*
Y92984D02*
D03*
X50291D02*
D03*
Y100465D02*
D03*
D12*
X336772Y155224D02*
D03*
Y144595D02*
D03*
X324272Y155039D02*
D03*
Y144409D02*
D03*
D13*
X301457Y143724D02*
D03*
X312087D02*
D03*
D14*
X336272Y123591D02*
D03*
Y131858D02*
D03*
X324772Y123591D02*
D03*
Y131858D02*
D03*
D15*
X314772Y126771D02*
D03*
Y132677D02*
D03*
D16*
X33768Y79224D02*
D03*
X45776D02*
D03*
D17*
X100772Y64228D02*
D03*
Y52220D02*
D03*
D18*
X281291Y245724D02*
D03*
Y243756D02*
D03*
Y241787D02*
D03*
Y239819D02*
D03*
X288772D02*
D03*
Y241787D02*
D03*
Y243756D02*
D03*
Y245724D02*
D03*
D19*
X285032Y242772D02*
D03*
D20*
X271760Y228224D02*
D03*
X282784D02*
D03*
X292284Y258224D02*
D03*
X281260D02*
D03*
D21*
X131272Y301973D02*
D03*
Y308476D02*
D03*
X165772Y178976D02*
D03*
Y172473D02*
D03*
X252272Y196976D02*
D03*
Y190472D02*
D03*
X178772Y200472D02*
D03*
Y206976D02*
D03*
X164772Y140976D02*
D03*
Y134473D02*
D03*
X139272Y169976D02*
D03*
Y163472D02*
D03*
D22*
X254725Y177724D02*
D03*
X261818D02*
D03*
D23*
X187520Y119224D02*
D03*
X194024D02*
D03*
X157020Y151724D02*
D03*
X163523D02*
D03*
X245020Y126724D02*
D03*
X251523D02*
D03*
X39024Y123224D02*
D03*
X32520D02*
D03*
X167524Y189724D02*
D03*
X161020D02*
D03*
D24*
X180134Y186768D02*
D03*
Y184799D02*
D03*
Y182831D02*
D03*
Y180862D02*
D03*
Y178894D02*
D03*
Y176925D02*
D03*
Y174957D02*
D03*
Y172988D02*
D03*
Y171020D02*
D03*
Y169051D02*
D03*
Y167083D02*
D03*
Y165114D02*
D03*
Y163146D02*
D03*
Y161177D02*
D03*
Y159209D02*
D03*
Y157240D02*
D03*
Y155272D02*
D03*
Y153303D02*
D03*
Y151335D02*
D03*
Y149366D02*
D03*
Y147398D02*
D03*
Y145429D02*
D03*
Y143461D02*
D03*
Y141492D02*
D03*
Y139524D02*
D03*
X239976D02*
D03*
Y141492D02*
D03*
Y143461D02*
D03*
Y145429D02*
D03*
Y147398D02*
D03*
Y149366D02*
D03*
Y151335D02*
D03*
Y153303D02*
D03*
Y155272D02*
D03*
Y157240D02*
D03*
Y159209D02*
D03*
Y161177D02*
D03*
Y163146D02*
D03*
Y165114D02*
D03*
Y167083D02*
D03*
Y169051D02*
D03*
Y171020D02*
D03*
Y172988D02*
D03*
Y174957D02*
D03*
Y176925D02*
D03*
Y178894D02*
D03*
Y180862D02*
D03*
Y182831D02*
D03*
Y184799D02*
D03*
Y186768D02*
D03*
D25*
X186433Y133224D02*
D03*
X188402D02*
D03*
X190370D02*
D03*
X192339D02*
D03*
X194307D02*
D03*
X196276D02*
D03*
X198244D02*
D03*
X200213D02*
D03*
X202181D02*
D03*
X204150D02*
D03*
X206118D02*
D03*
X208087D02*
D03*
X210055D02*
D03*
X212024D02*
D03*
X213992D02*
D03*
X215961D02*
D03*
X217929D02*
D03*
X219898D02*
D03*
X221866D02*
D03*
X223835D02*
D03*
X225803D02*
D03*
X227772D02*
D03*
X229740D02*
D03*
X231709D02*
D03*
X233677D02*
D03*
Y193067D02*
D03*
X231709D02*
D03*
X229740D02*
D03*
X227772D02*
D03*
X225803D02*
D03*
X223835D02*
D03*
X221866D02*
D03*
X219898D02*
D03*
X217929D02*
D03*
X215961D02*
D03*
X213992D02*
D03*
X212024D02*
D03*
X210055D02*
D03*
X208087D02*
D03*
X206118D02*
D03*
X204150D02*
D03*
X202181D02*
D03*
X200213D02*
D03*
X198244D02*
D03*
X196276D02*
D03*
X194307D02*
D03*
X192339D02*
D03*
X190370D02*
D03*
X188402D02*
D03*
X186433D02*
D03*
D26*
X230394Y35724D02*
D03*
X224488D02*
D03*
X218583D02*
D03*
X212677D02*
D03*
X206772D02*
D03*
X200866D02*
D03*
X194960D02*
D03*
X189055D02*
D03*
X183150D02*
D03*
X177244D02*
D03*
X99689Y35531D02*
D03*
X93783D02*
D03*
X87878D02*
D03*
X81972D02*
D03*
X76067D02*
D03*
X70161D02*
D03*
X64256D02*
D03*
X58350D02*
D03*
X52445D02*
D03*
X46539D02*
D03*
D27*
X244169Y16124D02*
D03*
X163469D02*
D03*
X113464Y15931D02*
D03*
X32764D02*
D03*
D28*
X231272Y120271D02*
D03*
Y113178D02*
D03*
D29*
X328839Y236909D02*
D03*
Y252658D02*
D03*
D30*
X66358Y184583D02*
D03*
Y166866D02*
D03*
X102185D02*
D03*
Y184583D02*
D03*
D31*
X302772Y238394D02*
D03*
Y247055D02*
D03*
D32*
X112177Y79224D02*
D03*
X100366D02*
D03*
D33*
X64772Y108433D02*
D03*
Y97016D02*
D03*
D34*
X222772Y307720D02*
D03*
Y319728D02*
D03*
D35*
X173394Y296724D02*
D03*
Y301724D02*
D03*
Y306724D02*
D03*
Y311724D02*
D03*
X151150Y296724D02*
D03*
Y301724D02*
D03*
Y306724D02*
D03*
Y311724D02*
D03*
D36*
X171772Y324114D02*
D03*
Y335335D02*
D03*
D37*
X292272Y255724D02*
X308272D01*
X251832Y196537D02*
X273459D01*
X150272Y180224D02*
X158024Y172473D01*
X292284Y259354D02*
Y261358D01*
X252272Y190181D02*
X260751Y181702D01*
X300357Y126771D02*
X314772D01*
X179646Y87598D02*
X190272Y98224D01*
X173228Y87598D02*
X179646D01*
X329085Y236663D02*
X336910Y244488D01*
X328985Y236564D02*
X329085Y236663D01*
X278091Y275039D02*
X321122D01*
X264272Y261221D02*
X278091Y275039D01*
X264272Y232724D02*
Y261221D01*
X336910Y244488D02*
Y259252D01*
X321122Y275039D02*
X336910Y259252D01*
X282874Y270768D02*
X292284Y261358D01*
X328642Y236221D02*
X328985Y236564D01*
X203268Y227677D02*
Y254724D01*
X195315Y219724D02*
X203268Y227677D01*
X173272Y219724D02*
X195315D01*
X131272Y294713D02*
X136811Y289173D01*
X151575D02*
X206693D01*
X172772Y220224D02*
X184272Y231724D01*
Y266224D01*
X190272Y98224D02*
X194024Y101976D01*
Y119224D01*
X236272Y91724D02*
X266272D01*
X249772Y292224D02*
X250772Y291224D01*
X210272Y292224D02*
X249772D01*
X184272Y266224D02*
X210272Y292224D01*
X293653Y260724D02*
X318272D01*
X131272Y294713D02*
Y301973D01*
X150272Y49224D02*
X180272D01*
X120272Y79224D02*
X150272Y49224D01*
X112177Y79224D02*
X120272D01*
X291272Y166224D02*
Y178724D01*
X287272Y182724D02*
X291272Y178724D01*
Y116724D02*
Y138224D01*
X273459Y196537D02*
X287272Y182724D01*
X282272Y107724D02*
X291272Y116724D01*
X314772Y126771D02*
X317953Y123591D01*
X324772D01*
X336272D01*
X167524Y189724D02*
Y196973D01*
X158686Y205810D02*
X167524Y196973D01*
X173524Y200472D02*
X178772D01*
X163272Y210724D02*
X173524Y200472D01*
X158686Y206139D02*
X163272Y210724D01*
X266272Y91724D02*
X282272Y107724D01*
X255272D02*
X282272D01*
X245020Y117976D02*
X255272Y107724D01*
X245020Y117976D02*
Y126724D01*
X260751Y178792D02*
Y181702D01*
X157021Y148727D02*
Y151723D01*
Y148727D02*
X162897Y142851D01*
X163189D02*
X164772Y141268D01*
X158024Y172473D02*
X165772D01*
X150272Y180224D02*
Y197396D01*
X158686Y205810D01*
X163272Y210724D02*
X172772Y220224D01*
X287272Y182724D02*
X319772Y215224D01*
Y259224D01*
X318272Y260724D02*
X319772Y259224D01*
X314272Y242224D02*
Y249724D01*
X308272Y255724D02*
X314272Y249724D01*
X87878Y35531D02*
Y40618D01*
X81972Y46524D02*
X87878Y40618D01*
X76067Y41020D02*
X81772Y46724D01*
X76067Y35531D02*
Y41020D01*
X81972Y35531D02*
Y46524D01*
X64256Y45740D02*
X70161Y39835D01*
Y35531D02*
Y39835D01*
X64256Y35531D02*
Y45740D01*
X58350Y40803D02*
X63772Y46224D01*
X58350Y35531D02*
Y40803D01*
X66358Y184583D02*
X102185D01*
X264272Y232724D02*
X268772Y228224D01*
X271760D01*
X310441Y238394D02*
X314272Y242224D01*
X302772Y238394D02*
X310441D01*
D38*
X350886Y289606D02*
X364272D01*
X320348Y320144D02*
X350886Y289606D01*
X304691Y320144D02*
X320348D01*
X350886Y236575D02*
X364272D01*
X329173D02*
X350886D01*
D39*
D03*
Y289606D02*
D03*
X364272Y236575D02*
D03*
D40*
Y289606D02*
D03*
D41*
X233268Y254724D02*
D03*
X223268D02*
D03*
X213268D02*
D03*
X203268D02*
D03*
X233268Y264724D02*
D03*
X223268D02*
D03*
X213268D02*
D03*
D42*
X203268D02*
D03*
D43*
X137272Y119724D02*
D03*
X127272Y106724D02*
D03*
X195772Y332724D02*
D03*
D44*
X127272Y119724D02*
D03*
X137272Y106724D02*
D03*
X205772Y332724D02*
D03*
D45*
X63272Y186224D02*
D03*
D46*
X297731Y313184D02*
D03*
X290772Y306224D02*
D03*
Y320144D02*
D03*
X304691Y306224D02*
D03*
Y320144D02*
D03*
D47*
X46161Y87894D02*
D03*
X264075Y238976D02*
D03*
X94095Y103740D02*
D03*
X179429Y235433D02*
D03*
X173228Y87598D02*
D03*
X282874Y270768D02*
D03*
X328839Y252658D02*
D03*
X228346Y169882D02*
D03*
X217321Y214274D02*
D03*
X331496Y224410D02*
D03*
X159449Y182874D02*
D03*
X222441Y236024D02*
D03*
X191929Y143504D02*
D03*
X197835Y149409D02*
D03*
X191929Y156299D02*
D03*
X172244Y112992D02*
D03*
X151575Y112008D02*
D03*
X161417D02*
D03*
X189961Y170079D02*
D03*
X198819Y169095D02*
D03*
X207677Y172047D02*
D03*
X205272Y117224D02*
D03*
X99410Y123819D02*
D03*
X151575Y289173D02*
D03*
X136811D02*
D03*
X167323Y232087D02*
D03*
X194882Y213386D02*
D03*
X187008D02*
D03*
X203740Y210433D02*
D03*
X201272Y180724D02*
D03*
X190272Y98224D02*
D03*
X236272Y91724D02*
D03*
X234272Y219724D02*
D03*
X226772Y182724D02*
D03*
X250772Y291224D02*
D03*
X291272Y166224D02*
D03*
Y138224D02*
D03*
X300772Y128224D02*
D03*
X180272Y49224D02*
D03*
X254272Y126224D02*
D03*
X231272Y109724D02*
D03*
X185272Y117724D02*
D03*
X257772Y185724D02*
D03*
X155272Y152724D02*
D03*
X138772Y161224D02*
D03*
X164272Y154224D02*
D03*
X150272Y179224D02*
D03*
X178272Y208724D02*
D03*
X81772Y46724D02*
D03*
X63772Y46224D02*
D03*
X30272Y122724D02*
D03*
X31272Y77224D02*
D03*
X130772Y310724D02*
D03*
X279272Y256724D02*
D03*
X284272Y227224D02*
D03*
X167272Y335724D02*
D03*
X191272Y300724D02*
D03*
D48*
X285032Y241197D02*
D03*
Y244346D02*
D03*
D49*
X304691Y320144D02*
D03*
Y306224D02*
D03*
X290772Y320144D02*
D03*
Y306224D02*
D03*
X297731Y313184D02*
D03*
%TF.MD5,fbafbea96ca863dd0b459fc750d6ab8e*%
M02*
