M48
;Layer_Color=9474304
;FILE_FORMAT=2:5
INCH,LZ
;TYPE=PLATED
T1F00S00C0.00787
T2F00S00C0.02800
T3F00S00C0.03000
T4F00S00C0.03543
T5F00S00C0.04094
T6F00S00C0.04724
T7F00S00C0.06299
%
T01
X0285032Y0241197
Y0244346
T02
X0300772Y0128224
X0291272Y0138224
Y0166224
X0257772Y0185724
X0226772Y0182724
X0228346Y0169882
X0207677Y0172047
X0198819Y0169095
X0189961Y0170079
X0191929Y0156299
Y0143504
X0197835Y0149409
X0201272Y0180724
X0159449Y0182874
X0150272Y0179224
X0155272Y0152724
X0164272Y0154224
X0161417Y0112008
X0151575
X0172244Y0112992
X0185272Y0117724
X0205272Y0117224
X0231272Y0109724
X0236272Y0091724
X0190272Y0098224
X0173228Y0087598
X0180272Y0049224
X0254272Y0126224
X0138772Y0161224
X009941Y0123819
X0094095Y010374
X0046161Y0087894
X0031272Y0077224
X0030272Y0122724
X0063772Y0046224
X0081772Y0046724
X0136811Y0289173
X0130772Y0310724
X0151575Y0289173
X0191272Y0300724
X0167272Y0335724
X0167323Y0232087
X0179429Y0235433
X0178272Y0208724
X0187008Y0213386
X0194882
X020374Y0210433
X0217321Y0214274
X0234272Y0219724
X0222441Y0236024
X0264075Y0238976
X0284272Y0227224
X0279272Y0256724
X0282874Y0270768
X0250772Y0291224
X0328839Y0252658
X0331496Y022441
T03
X0063272Y0186224
T04
X0127272Y0106724
X0137272
Y0119724
X0127272
X0195772Y0332724
X0205772
T05
X0203268Y0254724
X0213268
X0223268
X0233268
Y0264724
X0223268
X0213268
X0203268
T06
X0290772Y0306224
Y0320144
X0304691
X0297731Y0313184
X0304691Y0306224
X0304691Y0306224
T07
X0350886Y0236575
X0364272
Y0289606
X0350886
M30
