%TF.GenerationSoftware,Altium Limited,Altium Designer,19.1.8 (144)*%
G04 Layer_Color=255*
%FSLAX25Y25*%
%MOIN*%
%TF.FileFunction,Pads,Bot*%
%TF.Part,Single*%
G01*
G75*
%TA.AperFunction,ComponentPad*%
%ADD39C,0.09646*%
%ADD40R,0.09646X0.09646*%
%ADD41C,0.06102*%
%ADD42R,0.06102X0.06102*%
%ADD43C,0.05906*%
%ADD44R,0.05906X0.05906*%
%TA.AperFunction,ViaPad*%
%ADD45C,0.06000*%
%TA.AperFunction,ComponentPad*%
%ADD46C,0.07087*%
D39*
X350886Y236575D02*
D03*
Y289606D02*
D03*
X364272Y236575D02*
D03*
D40*
Y289606D02*
D03*
D41*
X233268Y254724D02*
D03*
X223268D02*
D03*
X213268D02*
D03*
X203268D02*
D03*
X233268Y264724D02*
D03*
X223268D02*
D03*
X213268D02*
D03*
D42*
X203268D02*
D03*
D43*
X137272Y119724D02*
D03*
X127272Y106724D02*
D03*
X195772Y332724D02*
D03*
D44*
X127272Y119724D02*
D03*
X137272Y106724D02*
D03*
X205772Y332724D02*
D03*
D45*
X63272Y186224D02*
D03*
D46*
X297731Y313184D02*
D03*
X290772Y306224D02*
D03*
Y320144D02*
D03*
X304691Y306224D02*
D03*
Y320144D02*
D03*
%TF.MD5,24cd31aa5b22c87103b5ed4fa018015c*%
M02*
