%TF.GenerationSoftware,Altium Limited,Altium Designer,19.1.8 (144)*%
G04 Layer_Physical_Order=2*
G04 Layer_Color=16711680*
%FSLAX25Y25*%
%MOIN*%
%TF.FileFunction,Copper,L2,Bot,Signal*%
%TF.Part,Single*%
G01*
G75*
%TA.AperFunction,Conductor*%
%ADD10C,0.01000*%
%ADD37C,0.01968*%
%ADD38C,0.03937*%
%TA.AperFunction,ComponentPad*%
%ADD39C,0.09646*%
%ADD40R,0.09646X0.09646*%
%ADD41C,0.06102*%
%ADD42R,0.06102X0.06102*%
%ADD43C,0.05906*%
%ADD44R,0.05906X0.05906*%
%TA.AperFunction,ViaPad*%
%ADD45C,0.06000*%
%TA.AperFunction,ComponentPad*%
%ADD46C,0.07087*%
%TA.AperFunction,ViaPad*%
%ADD47C,0.05000*%
%ADD48C,0.01968*%
%ADD49C,0.07087*%
%TA.AperFunction,Conductor*%
%ADD50C,0.07874*%
G36*
X193898Y239173D02*
X153885Y239173D01*
X99185Y131693D01*
X20472D01*
Y248425D01*
X57185Y285138D01*
X193898Y285138D01*
X193898Y239173D01*
D02*
G37*
G36*
X334646Y226875D02*
X334146Y226706D01*
X333992Y226906D01*
X333261Y227467D01*
X332410Y227819D01*
X331996Y227874D01*
Y224410D01*
X331496D01*
Y223909D01*
X328032D01*
X328086Y223496D01*
X328439Y222644D01*
X329000Y221913D01*
X329200Y221760D01*
X329030Y221260D01*
X242126D01*
Y267520D01*
X282360D01*
X282874Y267452D01*
X283388Y267520D01*
X334646D01*
Y226875D01*
D02*
G37*
%LPC*%
G36*
X63772Y190193D02*
Y186724D01*
X67240D01*
X67169Y187269D01*
X66766Y188242D01*
X66124Y189077D01*
X65289Y189718D01*
X64316Y190121D01*
X63772Y190193D01*
D02*
G37*
G36*
X62772D02*
X62227Y190121D01*
X61254Y189718D01*
X60419Y189077D01*
X59778Y188242D01*
X59375Y187269D01*
X59303Y186724D01*
X62772D01*
Y190193D01*
D02*
G37*
G36*
X67240Y185724D02*
X63772D01*
Y182256D01*
X64316Y182327D01*
X65289Y182730D01*
X66124Y183372D01*
X66766Y184207D01*
X67169Y185180D01*
X67240Y185724D01*
D02*
G37*
G36*
X62772D02*
X59303D01*
X59375Y185180D01*
X59778Y184207D01*
X60419Y183372D01*
X61254Y182730D01*
X62227Y182327D01*
X62772Y182256D01*
Y185724D01*
D02*
G37*
G36*
X279772Y260189D02*
Y257224D01*
X282736D01*
X282682Y257638D01*
X282329Y258489D01*
X281768Y259221D01*
X281037Y259782D01*
X280185Y260134D01*
X279772Y260189D01*
D02*
G37*
G36*
X278772D02*
X278358Y260134D01*
X277507Y259782D01*
X276775Y259221D01*
X276214Y258489D01*
X275862Y257638D01*
X275807Y257224D01*
X278772D01*
Y260189D01*
D02*
G37*
G36*
X282736Y256224D02*
X279772D01*
Y253260D01*
X280185Y253314D01*
X281037Y253667D01*
X281768Y254228D01*
X282329Y254959D01*
X282682Y255811D01*
X282736Y256224D01*
D02*
G37*
G36*
X278772D02*
X275807D01*
X275862Y255811D01*
X276214Y254959D01*
X276775Y254228D01*
X277507Y253667D01*
X278358Y253314D01*
X278772Y253260D01*
Y256224D01*
D02*
G37*
G36*
X329339Y256122D02*
Y253158D01*
X332303D01*
X332249Y253571D01*
X331896Y254423D01*
X331335Y255154D01*
X330604Y255715D01*
X329752Y256067D01*
X329339Y256122D01*
D02*
G37*
G36*
X328339D02*
X327925Y256067D01*
X327074Y255715D01*
X326342Y255154D01*
X325781Y254423D01*
X325429Y253571D01*
X325374Y253158D01*
X328339D01*
Y256122D01*
D02*
G37*
G36*
X332303Y252158D02*
X329339D01*
Y249193D01*
X329752Y249248D01*
X330604Y249600D01*
X331335Y250161D01*
X331896Y250892D01*
X332249Y251744D01*
X332303Y252158D01*
D02*
G37*
G36*
X328339D02*
X325374D01*
X325429Y251744D01*
X325781Y250892D01*
X326342Y250161D01*
X327074Y249600D01*
X327925Y249248D01*
X328339Y249193D01*
Y252158D01*
D02*
G37*
G36*
X285531Y246270D02*
Y244847D01*
X286955D01*
X286901Y245121D01*
X286462Y245777D01*
X285806Y246216D01*
X285531Y246270D01*
D02*
G37*
G36*
X284531D02*
X284257Y246216D01*
X283601Y245777D01*
X283162Y245121D01*
X283108Y244847D01*
X284531D01*
Y246270D01*
D02*
G37*
G36*
X286955Y243847D02*
X283108D01*
X283162Y243572D01*
X283456Y243132D01*
X283560Y242772D01*
X283456Y242411D01*
X283162Y241971D01*
X283108Y241697D01*
X286955D01*
X286901Y241971D01*
X286607Y242411D01*
X286503Y242772D01*
X286607Y243132D01*
X286901Y243572D01*
X286955Y243847D01*
D02*
G37*
G36*
Y240697D02*
X285531D01*
Y239273D01*
X285806Y239328D01*
X286462Y239766D01*
X286901Y240423D01*
X286955Y240697D01*
D02*
G37*
G36*
X284531D02*
X283108D01*
X283162Y240423D01*
X283601Y239766D01*
X284257Y239328D01*
X284531Y239273D01*
Y240697D01*
D02*
G37*
G36*
X264075Y242292D02*
X263217Y242179D01*
X262417Y241848D01*
X261730Y241321D01*
X261203Y240634D01*
X260872Y239835D01*
X260759Y238976D01*
X260872Y238118D01*
X261203Y237318D01*
X261730Y236632D01*
X262417Y236105D01*
X263217Y235774D01*
X264075Y235661D01*
X264933Y235774D01*
X265733Y236105D01*
X266419Y236632D01*
X266946Y237318D01*
X267278Y238118D01*
X267391Y238976D01*
X267278Y239835D01*
X266946Y240634D01*
X266419Y241321D01*
X265733Y241848D01*
X264933Y242179D01*
X264075Y242292D01*
D02*
G37*
G36*
X284772Y230689D02*
Y227724D01*
X287736D01*
X287682Y228138D01*
X287329Y228990D01*
X286768Y229721D01*
X286037Y230282D01*
X285185Y230634D01*
X284772Y230689D01*
D02*
G37*
G36*
X283772D02*
X283358Y230634D01*
X282507Y230282D01*
X281775Y229721D01*
X281214Y228990D01*
X280862Y228138D01*
X280807Y227724D01*
X283772D01*
Y230689D01*
D02*
G37*
G36*
X330996Y227874D02*
X330582Y227819D01*
X329731Y227467D01*
X329000Y226906D01*
X328439Y226174D01*
X328086Y225323D01*
X328032Y224909D01*
X330996D01*
Y227874D01*
D02*
G37*
G36*
X287736Y226724D02*
X284772D01*
Y223760D01*
X285185Y223815D01*
X286037Y224167D01*
X286768Y224728D01*
X287329Y225459D01*
X287682Y226311D01*
X287736Y226724D01*
D02*
G37*
G36*
X283772D02*
X280807D01*
X280862Y226311D01*
X281214Y225459D01*
X281775Y224728D01*
X282507Y224167D01*
X283358Y223815D01*
X283772Y223760D01*
Y226724D01*
D02*
G37*
%LPD*%
D10*
X94095Y103740D02*
Y104134D01*
X93307Y104921D02*
X94095Y104134D01*
X93307Y104921D02*
X119095Y130709D01*
X221457Y236024D02*
X222441D01*
X208268Y249213D02*
X221457Y236024D01*
X208268Y249213D02*
Y259724D01*
X179429Y235728D02*
X194882Y220276D01*
X179429Y235433D02*
Y235728D01*
X228346Y169882D02*
Y170150D01*
X217321Y181175D02*
X228346Y170150D01*
X217321Y181175D02*
Y214274D01*
X203268Y264724D02*
X208268Y259724D01*
X159449Y182874D02*
Y209260D01*
X161020Y210831D01*
X163386Y124803D02*
X182087Y143504D01*
X191929D01*
X182087Y149409D02*
X197835D01*
X165354Y137598D02*
X184055Y156299D01*
X191929D01*
X151868Y112699D02*
X160035Y120866D01*
X165354D01*
X176181Y131693D01*
X191929D01*
X203740Y143504D01*
Y154331D01*
X190726Y167345D02*
X203740Y154331D01*
X190726Y167345D02*
Y169313D01*
X189961Y170079D02*
X190726Y169313D01*
X161417Y112008D02*
X177165Y127756D01*
X198819D01*
X210630Y139567D01*
Y157283D01*
X172244Y112992D02*
X183071Y123819D01*
X200787D01*
X215551Y138583D01*
Y164173D01*
X207677Y172047D02*
X215551Y164173D01*
X198819Y169095D02*
X210630Y157283D01*
X224410Y136362D02*
Y163189D01*
X206874Y180724D02*
X224410Y163189D01*
X201272Y180724D02*
X206874D01*
X132350Y124803D02*
X163386D01*
X163386Y130709D02*
X182087Y149409D01*
X119095Y130709D02*
X163386D01*
X205272Y117224D02*
X224410Y136362D01*
X99410Y123819D02*
X113189Y137598D01*
X165354D01*
X127272Y119724D02*
X132350Y124803D01*
X194882Y213386D02*
Y220276D01*
X167323Y232087D02*
X168307D01*
X187008Y213386D01*
X187992Y247835D02*
X203740Y232087D01*
Y210433D02*
Y232087D01*
X140748Y245866D02*
X143701D01*
X178272Y211295D01*
X125000Y246850D02*
X161020Y210831D01*
X113189Y245866D02*
X138772Y220284D01*
X234272Y190224D02*
Y219724D01*
X226772Y182724D02*
X234272Y190224D01*
X127272Y106724D02*
X137272D01*
X138772Y161224D02*
Y220284D01*
X178272Y208724D02*
Y211295D01*
X191772Y300224D02*
X243772D01*
X191272Y300724D02*
X191772Y300224D01*
X243772D02*
X256731Y313184D01*
X297731D01*
X195772Y305224D02*
Y332724D01*
X191272Y300724D02*
X195772Y305224D01*
D37*
X46161Y76335D02*
X75772Y46724D01*
X46161Y87894D02*
X170307D01*
X171095Y87106D01*
X46161Y76335D02*
Y87894D01*
X31272Y77224D02*
X63022Y45474D01*
X282874Y270768D02*
Y271835D01*
X283268Y272228D01*
X264272Y291224D02*
X283268Y272228D01*
X210539Y229224D02*
X247047D01*
X193898Y245866D02*
X210539Y229224D01*
X238583Y254724D02*
X244390Y248917D01*
X233268Y254724D02*
X238583D01*
X250772Y291224D02*
X264272D01*
X63272Y186224D02*
X105315Y228268D01*
X169713Y102165D02*
X180272Y112724D01*
X141831Y102165D02*
X169713D01*
X137272Y106724D02*
X141831Y102165D01*
X193272Y109724D02*
X231272D01*
X185272Y117724D02*
X193272Y109724D01*
X136811Y289173D02*
X151575D01*
X190272Y98224D02*
X196772Y91724D01*
X236272D01*
X257772Y185724D02*
Y224213D01*
X291272Y138224D02*
Y166224D01*
X272772Y144724D02*
X289272Y128224D01*
X300772D01*
X180272Y112724D02*
X185272Y117724D01*
X180272Y49224D02*
Y112724D01*
X138772Y161224D02*
X147272Y152724D01*
X155272D01*
X254272Y126224D02*
X272772Y144724D01*
Y180724D01*
X257772Y185724D02*
X267772D01*
X272772Y180724D01*
X237772Y109724D02*
X254272Y126224D01*
X231272Y109724D02*
X237772D01*
X150272Y167724D02*
X163272Y154724D01*
X150272Y167724D02*
Y179224D01*
X75772Y46724D02*
X81772D01*
X30272Y153224D02*
X63272Y186224D01*
X30272Y122724D02*
Y153224D01*
X23772Y116224D02*
X30272Y122724D01*
X23772Y84724D02*
Y116224D01*
Y84724D02*
X31272Y77224D01*
D38*
X130772Y310724D02*
X155772Y335724D01*
X167272D01*
X310236Y328051D02*
X313878Y324410D01*
Y265256D02*
Y324410D01*
X298679Y328051D02*
X310236D01*
X290772Y320144D02*
X298679Y328051D01*
X130772Y279224D02*
Y310724D01*
D39*
X350886Y236575D02*
D03*
Y289606D02*
D03*
X364272Y236575D02*
D03*
D40*
Y289606D02*
D03*
D41*
X233268Y254724D02*
D03*
X223268D02*
D03*
X213268D02*
D03*
X203268D02*
D03*
X233268Y264724D02*
D03*
X223268D02*
D03*
X213268D02*
D03*
D42*
X203268D02*
D03*
D43*
X137272Y119724D02*
D03*
X127272Y106724D02*
D03*
X195772Y332724D02*
D03*
D44*
X127272Y119724D02*
D03*
X137272Y106724D02*
D03*
X205772Y332724D02*
D03*
D45*
X63272Y186224D02*
D03*
D46*
X297731Y313184D02*
D03*
X290772Y306224D02*
D03*
Y320144D02*
D03*
X304691Y306224D02*
D03*
Y320144D02*
D03*
D47*
X46161Y87894D02*
D03*
X264075Y238976D02*
D03*
X94095Y103740D02*
D03*
X179429Y235433D02*
D03*
X173228Y87598D02*
D03*
X282874Y270768D02*
D03*
X328839Y252658D02*
D03*
X228346Y169882D02*
D03*
X217321Y214274D02*
D03*
X331496Y224410D02*
D03*
X159449Y182874D02*
D03*
X222441Y236024D02*
D03*
X191929Y143504D02*
D03*
X197835Y149409D02*
D03*
X191929Y156299D02*
D03*
X172244Y112992D02*
D03*
X151575Y112008D02*
D03*
X161417D02*
D03*
X189961Y170079D02*
D03*
X198819Y169095D02*
D03*
X207677Y172047D02*
D03*
X205272Y117224D02*
D03*
X99410Y123819D02*
D03*
X151575Y289173D02*
D03*
X136811D02*
D03*
X167323Y232087D02*
D03*
X194882Y213386D02*
D03*
X187008D02*
D03*
X203740Y210433D02*
D03*
X201272Y180724D02*
D03*
X190272Y98224D02*
D03*
X236272Y91724D02*
D03*
X234272Y219724D02*
D03*
X226772Y182724D02*
D03*
X250772Y291224D02*
D03*
X291272Y166224D02*
D03*
Y138224D02*
D03*
X300772Y128224D02*
D03*
X180272Y49224D02*
D03*
X254272Y126224D02*
D03*
X231272Y109724D02*
D03*
X185272Y117724D02*
D03*
X257772Y185724D02*
D03*
X155272Y152724D02*
D03*
X138772Y161224D02*
D03*
X164272Y154224D02*
D03*
X150272Y179224D02*
D03*
X178272Y208724D02*
D03*
X81772Y46724D02*
D03*
X63772Y46224D02*
D03*
X30272Y122724D02*
D03*
X31272Y77224D02*
D03*
X130772Y310724D02*
D03*
X279272Y256724D02*
D03*
X284272Y227224D02*
D03*
X167272Y335724D02*
D03*
X191272Y300724D02*
D03*
D48*
X285032Y241197D02*
D03*
Y244346D02*
D03*
D49*
X304691Y320144D02*
D03*
Y306224D02*
D03*
X290772Y320144D02*
D03*
Y306224D02*
D03*
X297731Y313184D02*
D03*
D50*
X251969Y267028D02*
X252215Y267274D01*
X233268Y286221D02*
X252215Y267274D01*
X251969Y261614D02*
Y267028D01*
X185531Y271457D02*
Y281791D01*
X183071Y271457D02*
X185531D01*
X189961Y286221D02*
X233268D01*
X185531Y281791D02*
X189961Y286221D01*
%TF.MD5,c46dc6adf46d811843f5f82b74a65929*%
M02*
