%TF.GenerationSoftware,Altium Limited,Altium Designer,19.1.8 (144)*%
G04 Layer_Color=16711935*
%FSLAX25Y25*%
%MOIN*%
%TF.FileFunction,Soldermask,Bot*%
%TF.Part,Single*%
G01*
G75*
%TA.AperFunction,ComponentPad*%
%ADD39C,0.09646*%
%ADD40R,0.09646X0.09646*%
%ADD51C,0.06902*%
%ADD52R,0.06902X0.06902*%
%ADD53C,0.06706*%
%ADD54R,0.06706X0.06706*%
%TA.AperFunction,ViaPad*%
%ADD55C,0.06800*%
%TA.AperFunction,ComponentPad*%
%ADD56C,0.07887*%
%TA.AperFunction,ViaPad*%
%ADD57C,0.05800*%
%ADD58C,0.02520*%
%ADD59C,0.07887*%
D39*
X350886Y236575D02*
D03*
Y289606D02*
D03*
X364272Y236575D02*
D03*
D40*
Y289606D02*
D03*
D51*
X233268Y254724D02*
D03*
X223268D02*
D03*
X213268D02*
D03*
X203268D02*
D03*
X233268Y264724D02*
D03*
X223268D02*
D03*
X213268D02*
D03*
D52*
X203268D02*
D03*
D53*
X137272Y119724D02*
D03*
X127272Y106724D02*
D03*
X195772Y332724D02*
D03*
D54*
X127272Y119724D02*
D03*
X137272Y106724D02*
D03*
X205772Y332724D02*
D03*
D55*
X63272Y186224D02*
D03*
D56*
X297731Y313184D02*
D03*
X290772Y306224D02*
D03*
Y320144D02*
D03*
X304691Y306224D02*
D03*
Y320144D02*
D03*
D57*
X46161Y87894D02*
D03*
X264075Y238976D02*
D03*
X94095Y103740D02*
D03*
X179429Y235433D02*
D03*
X173228Y87598D02*
D03*
X282874Y270768D02*
D03*
X328839Y252658D02*
D03*
X228346Y169882D02*
D03*
X217321Y214274D02*
D03*
X331496Y224410D02*
D03*
X159449Y182874D02*
D03*
X222441Y236024D02*
D03*
X191929Y143504D02*
D03*
X197835Y149409D02*
D03*
X191929Y156299D02*
D03*
X172244Y112992D02*
D03*
X151575Y112008D02*
D03*
X161417D02*
D03*
X189961Y170079D02*
D03*
X198819Y169095D02*
D03*
X207677Y172047D02*
D03*
X205272Y117224D02*
D03*
X99410Y123819D02*
D03*
X151575Y289173D02*
D03*
X136811D02*
D03*
X167323Y232087D02*
D03*
X194882Y213386D02*
D03*
X187008D02*
D03*
X203740Y210433D02*
D03*
X201272Y180724D02*
D03*
X190272Y98224D02*
D03*
X236272Y91724D02*
D03*
X234272Y219724D02*
D03*
X226772Y182724D02*
D03*
X250772Y291224D02*
D03*
X291272Y166224D02*
D03*
Y138224D02*
D03*
X300772Y128224D02*
D03*
X180272Y49224D02*
D03*
X254272Y126224D02*
D03*
X231272Y109724D02*
D03*
X185272Y117724D02*
D03*
X257772Y185724D02*
D03*
X155272Y152724D02*
D03*
X138772Y161224D02*
D03*
X164272Y154224D02*
D03*
X150272Y179224D02*
D03*
X178272Y208724D02*
D03*
X81772Y46724D02*
D03*
X63772Y46224D02*
D03*
X30272Y122724D02*
D03*
X31272Y77224D02*
D03*
X130772Y310724D02*
D03*
X279272Y256724D02*
D03*
X284272Y227224D02*
D03*
X167272Y335724D02*
D03*
X191272Y300724D02*
D03*
D58*
X285032Y241197D02*
D03*
Y244346D02*
D03*
D59*
X304691Y320144D02*
D03*
Y306224D02*
D03*
X290772Y320144D02*
D03*
Y306224D02*
D03*
X297731Y313184D02*
D03*
%TF.MD5,0821b20a449d29c9e26015cc9d85fcc1*%
M02*
